<svg xmlns="http://www.w3.org/2000/svg" width="39" height="39" viewBox="0 0 39 39"><path d="M3070.47,199.651 L3044.273,199.651 C3040.814,199.651 3038,196.843 3038,193.391 L3038,167.26 C3038,163.808 3040.814,161 3044.273,161 L3070.47,161 C3073.928,161 3076.742,163.808 3076.742,167.26 L3076.742,193.392 C3076.742,196.844 3073.928,199.651 3070.47,199.651 Z M3051.73071,188.567755 L3046.44809,189.936312 L3048.42643,184.766618 L3048.2322,184.342845 C3046.30816,180.145008 3047.35437,175.125738 3050.89309,172.049574 C3055.26868,168.245935 3061.89925,168.70959 3065.70289,173.085176 C3069.50653,177.460761 3069.04287,184.091332 3064.66729,187.894971 C3061.12856,190.971135 3056.01254,191.308611 3052.12333,188.819074 L3051.73071,188.567755 Z M3049.17132,170.068899 C3044.87002,173.807963 3043.51498,179.842384 3045.65564,184.999283 L3042.95194,192.975476 L3051.11469,191.279203 C3055.92348,194.116728 3062.08776,193.614709 3066.38906,189.875645 C3071.85854,185.121097 3072.43811,176.832883 3067.68356,171.363402 C3062.92901,165.89392 3054.6408,165.314351 3049.17132,170.068899 Z M3063.24377,182.901204 C3063.23323,182.894905 3063.09272,182.811943 3063.04409,182.782627 C3062.51478,182.452257 3061.32308,181.744304 3061.08822,181.637566 C3060.6043,181.407373 3060.24099,181.418088 3059.89531,181.853388 C3059.7372,182.052503 3059.29883,182.498472 3058.90929,182.875015 C3058.87525,182.90805 3058.91966,182.906438 3058.80825,182.836877 C3056.86954,181.645791 3056.11752,180.918037 3055.31528,179.218987 C3055.4623,179.091866 3055.93274,178.634901 3056.18577,178.257633 C3056.21845,178.208907 3056.25068,178.15871 3056.28248,178.106956 C3056.46247,177.80677 3056.45634,177.51276 3056.33489,177.205458 C3056.13794,176.707145 3054.49768,174.108171 3054.08873,174.072393 C3053.71233,174.039462 3053.2933,174.165607 3052.94798,174.478297 C3052.96964,174.458304 3052.78269,174.62725 3052.71622,174.690824 C3052.6007,174.80131 3052.49528,174.912901 3052.39316,175.036613 C3051.94207,175.58305 3051.6487,176.254949 3051.57415,177.107032 C3051.50807,177.862294 3051.68582,178.658001 3052.0259,179.458591 C3052.2037,179.877162 3052.34411,180.134409 3052.55867,180.489831 C3052.43977,180.300532 3052.87459,181.033298 3053.11816,181.402616 C3053.52859,182.024924 3053.99538,182.640258 3054.52468,183.225505 C3055.37214,184.16254 3056.30306,184.936188 3057.31914,185.485509 C3059.02802,186.407786 3059.85636,186.640711 3060.98722,186.573458 C3061.83282,186.521672 3063.10267,185.854956 3063.44496,185.103392 C3063.75565,184.421189 3063.8857,183.674301 3063.7283,183.356224 C3063.67884,183.234073 3063.57754,183.125985 3063.43432,183.023425 C3063.38131,182.985467 3063.32454,182.949467 3063.24377,182.901204 Z" transform="translate(-3038 -161)"/></svg>