<svg id="Capa_1" enable-background="new 0 0 511.501 511.501" height="512" viewBox="0 0 511.501 511.501" width="512" xmlns="http://www.w3.org/2000/svg" xmlns:xlink="http://www.w3.org/1999/xlink"><linearGradient id="SVGID_1_" gradientUnits="userSpaceOnUse" x1="258.936" x2="258.936" y1="65.501" y2="375.501"><stop offset=".00000036422" stop-color="#a8abff"/><stop offset="1" stop-color="#fac8ff"/></linearGradient><linearGradient id="SVGID_2_" gradientUnits="userSpaceOnUse" x1="393.936" x2="393.936" y1="7.501" y2="210.501"><stop offset=".00000083866" stop-color="#96d1f3"/><stop offset="1" stop-color="#ccfff4"/></linearGradient><linearGradient id="SVGID_3_" gradientUnits="userSpaceOnUse" x1="255.751" x2="255.751" y1="0" y2="511.501"><stop offset=".00000011981" stop-color="#174fa3"/><stop offset="1" stop-color="#b044af"/></linearGradient><g><g><path d="m140.936 511.501v-69.001h-14.03c-31.106 0-57.054-23.772-59.771-54.76l-6.071-69.24-37.882-8.536c-12.457-2.807-19.129-16.411-13.722-27.979l45.604-97.571c0-97.707 83.918-176.913 187.436-176.913 103.518 0 187.436 79.207 187.436 176.913v31.879c0 54.276-18.732 107.074-53.361 150.405l-47.639 58.777v86.025h-188z" fill="#fff"/><path d="m413.936 240.94v-40.877l-34.211-12.166c-4.919-11.876-7.404-17.875-12.323-29.751l15.588-32.794-28.904-28.904-32.794 15.588c-11.876-4.919-17.875-7.404-29.751-12.323l-12.166-34.211h-40.877l-12.166 34.211c-11.876 4.919-17.875 7.404-29.751 12.323l-32.794-15.588-28.904 28.904 15.588 32.794-12.323 29.751-34.211 12.166v40.877l34.211 12.166 12.323 29.751-15.588 32.794c14.434 14.433 14.471 14.471 28.904 28.904l32.794-15.588 29.751 12.323 12.166 34.211h40.877l12.166-34.211c11.876-4.919 17.875-7.404 29.751-12.323l32.794 15.588c14.434-14.433 14.471-14.471 28.904-28.904l-15.588-32.794c4.919-11.876 7.404-17.875 12.323-29.751zm-155 54.561c-41.421 0-75-33.579-75-75s33.579-75 75-75 75 33.579 75 75-33.578 75-75 75z" fill="url(#SVGID_1_)"/><path d="m433.936 301.501c0 22.091-17.909 40-40 40s-40-17.909-40-40z" fill="#fff"/><path d="m333.936 281.501c0 11.046 8.954 20 20 20h80c11.046 0 20-8.954 20-20v-71h-120z" fill="#fff"/><path d="m393.936 7.501c-60.751 0-110 49.249-110 110 0 38.614 19.9 72.575 50 92.202v.798h120v-.798c30.1-19.627 50-53.589 50-92.202 0-60.751-49.248-110-110-110z" fill="url(#SVGID_2_)"/></g><path d="m395.608.013c-23.876-.349-46.761 6.406-66.247 19.282-26.798-12.625-56.725-19.294-86.865-19.294-106.888 0-193.958 81.818-194.922 182.727l-44.914 96.082c-3.541 7.588-3.455 16.25.236 23.767 3.689 7.51 10.485 12.868 18.641 14.701l32.536 7.335 5.592 63.784c1.48 16.862 9.167 32.444 21.644 43.876 12.479 11.433 28.672 17.729 45.598 17.729h6.53v61.5h15v-61.5h88.5v-15h-110.03c-27.418 0-49.901-20.6-52.298-47.915l-6.549-74.696-43.229-9.746c-3.707-.833-6.794-3.269-8.471-6.681-1.679-3.419-1.719-7.358-.11-10.806l46.316-99.08v-1.666c0-93.413 80.716-169.41 179.93-169.41 25.297 0 50.419 5.063 73.358 14.694-1.502 1.339-2.976 2.719-4.419 4.142-9.875 9.739-17.809 20.905-23.61 33.04l-3.154-8.876h-51.469l-12.815 36.057-6.105 2.529c-5.842 2.42-10.746 4.451-17.493 7.241l-34.563-16.422-36.383 36.383 16.421 34.562-9.771 23.601-36.056 12.815v51.469l36.056 12.815 9.771 23.601-16.421 34.562 36.383 36.383 34.562-16.421 23.601 9.771 12.815 36.056h51.469l12.815-36.057s16.852-6.98 23.599-9.771l34.563 16.422 12.34-12.339c4.127 2.703 8.695 4.781 13.575 6.099-3.422 5.008-7.039 9.903-10.813 14.623l-49.313 60.834v88.688h15v-83.372l45.996-56.743c5.791-7.239 11.218-14.832 16.166-22.616 21.831-2.137 39.365-19.115 42.371-40.684 11.767-3.116 20.467-13.852 20.467-26.585v-67.819c31.219-21.925 49.833-57.382 49.999-95.659.277-64.18-51.682-117.12-115.83-118.012zm-69.172 213.669v6.819c0 37.22-30.28 67.5-67.5 67.5s-67.5-30.28-67.5-67.5 30.28-67.5 67.5-67.5c8.508 0 16.743 1.554 24.531 4.608 8.105 22.37 22.928 42 42.969 56.073zm26.089 121.824-31.017-14.738-35.923 14.87-11.503 32.363h-30.292l-11.503-32.364-35.921-14.87-31.019 14.739-21.416-21.416 14.739-31.019-14.87-35.921-32.364-11.503v-30.293l32.364-11.503 14.87-35.921-14.739-31.019 21.416-21.416 31.017 14.738 3.077-1.271c8.417-3.479 13.884-5.744 20.58-8.519l12.266-5.08 11.503-32.363h30.293l5.762 16.216c-2.247 9.141-3.409 18.619-3.409 28.284 0 7.78.773 15.441 2.246 22.9-6.409-1.578-13.007-2.4-19.746-2.4-45.49 0-82.5 37.01-82.5 82.5s37.01 82.5 82.5 82.5c27.881 0 52.559-13.917 67.5-35.154v13.654c0 12.733 8.7 23.469 20.467 26.585 1.206 8.651 4.747 16.56 9.969 23.073zm41.411-1.505c-15.339 0-28.221-10.685-31.617-25h63.233c-3.395 14.316-16.277 25-31.616 25zm52.5-52.5c0 6.893-5.607 12.5-12.5 12.5h-80c-6.893 0-12.5-5.607-12.5-12.5v-3.5h105zm0-18.5h-105v-15h105zm0-30h-105v-15h105zm-85-100h-12.5c-6.893 0-12.5-5.607-12.5-12.5s5.607-12.5 12.5-12.5 12.5 5.607 12.5 12.5zm15 70v-55h35v55zm74.026 0h-24.026v-55h12.5c15.163 0 27.5-12.337 27.5-27.5s-12.337-27.5-27.5-27.5-27.5 12.337-27.5 27.5v12.5h-35v-12.5c0-15.163-12.337-27.5-27.5-27.5s-27.5 12.337-27.5 27.5 12.337 27.5 27.5 27.5h12.5v55h-24.026c-28.799-19.075-45.974-50.976-45.974-85.5 0-27.648 10.843-53.568 30.531-72.984 19.336-19.068 44.837-29.516 71.96-29.516.488 0 .982.003 1.472.01 55.956.779 101.28 46.961 101.036 102.947-.149 34.337-17.324 66.067-45.973 85.043zm-24.026-70v-12.5c0-6.893 5.607-12.5 12.5-12.5s12.5 5.607 12.5 12.5-5.607 12.5-12.5 12.5z" fill="url(#SVGID_3_)"/></g></svg>