<svg id="Capa_1" enable-background="new 0 0 511.446 511.446" height="512" viewBox="0 0 511.446 511.446" width="512" xmlns="http://www.w3.org/2000/svg" xmlns:xlink="http://www.w3.org/1999/xlink"><linearGradient id="SVGID_1_" gradientUnits="userSpaceOnUse" x1="255.723" x2="255.723" y1="167.946" y2="407.946"><stop offset=".00000083866" stop-color="#96d1f3"/><stop offset="1" stop-color="#ccfff4"/></linearGradient><linearGradient id="lg1"><stop offset=".00000036422" stop-color="#a8abff"/><stop offset="1" stop-color="#fac8ff"/></linearGradient><linearGradient id="SVGID_2_" gradientUnits="userSpaceOnUse" x1="255.723" x2="255.723" xlink:href="#lg1" y1="223.946" y2="407.946"/><linearGradient id="SVGID_3_" gradientUnits="userSpaceOnUse" x1="255.723" x2="255.723" xlink:href="#lg1" y1="7.946" y2="116.946"/><linearGradient id="SVGID_4_" gradientUnits="userSpaceOnUse" x1="255.723" x2="255.723" y1="0" y2="511.446"><stop offset=".00000011981" stop-color="#174fa3"/><stop offset="1" stop-color="#b044af"/></linearGradient><g><g><path d="m485.723 471.946v-314c0-16.569-13.431-30-30-30h-400c-16.569 0-30 13.431-30 30v314z" fill="#fff"/><path d="m65.723 167.946h380v240h-380z" fill="url(#SVGID_1_)"/><path d="m326.723 447.946c0 7.732-6.268 14-14 14h-114c-7.732 0-14-6.268-14-14h-177v26c0 16.569 13.431 30 30 30h436c16.569 0 30-13.431 30-30v-26z" fill="#fff"/><path d="m380.723 407.946v-130.95c0-18.731-12.998-34.954-31.279-39.038l-62.721-14.012h-62l-62.721 14.012c-18.28 4.084-31.279 20.307-31.279 39.038v130.95z" fill="url(#SVGID_2_)"/><g fill="#fff"><path d="m224.723 223.946-35.975 8.037 66.975 73.963 66.975-73.963-35.975-8.037z"/><path d="m255.723 254.946 31-31v-29h-62v29z"/><path d="m255.723 203.946c-33.137 0-60-26.863-60-60v-37h120v37c0 33.137-26.863 60-60 60z"/></g><path d="m255.723 7.946-100 35 40 14v50s19 10 60 10 60-10 60-10v-50l40-14z" fill="url(#SVGID_3_)"/></g><g><path d="m493.223 440.446v-282.5c0-20.678-16.822-37.5-37.5-37.5h-132.5v-8.972-4.528-44.679l19-6.65v47.329h15v-52.579l21.203-7.421-122.703-42.946-122.703 42.946 55.203 19.321v44.679 4.528 8.972h-132.5c-20.678 0-37.5 16.822-37.5 37.5v282.5h-18v33.5c0 20.678 16.822 37.5 37.5 37.5h436c20.678 0 37.5-16.822 37.5-37.5v-33.5zm-314.797-397.5 77.297-27.054 77.297 27.054-77.297 27.054zm172.654 187.693-56.856-12.702v-18.594c8.821-6.15 16.11-14.343 21.174-23.897h122.826v225h-50v-123.45c-.001-22.409-15.275-41.471-37.144-46.357zm-27.857 61.307v108.5h-60v-91.609l62.096-68.583 22.49 5.024c14.963 3.343 25.414 16.386 25.414 31.718v123.45h-35v-108.5zm-150 0v108.5h-35v-123.45c0-15.332 10.451-28.375 25.414-31.718l22.491-5.024 62.095 68.583v91.609h-60v-108.5zm82.5-167.5c25.025 0 42.34-3.635 52.5-6.703v26.203c0 28.949-23.551 52.5-52.5 52.5s-52.5-23.551-52.5-52.5v-26.203c10.16 3.068 27.475 6.703 52.5 6.703zm-52.5-22.499v-34.429l52.5 18.375 52.5-18.375v34.427c-7.289 2.639-24.521 7.502-52.5 7.502-27.999-.001-45.236-4.871-52.5-7.5zm76 105.272v13.621l-23.5 23.5-23.5-23.5v-13.621c7.322 2.729 15.239 4.227 23.5 4.227s16.178-1.498 23.5-4.227zm-62-7.876v18.594l-56.856 12.702c-21.87 4.886-37.144 23.948-37.144 46.357v123.45h-50v-225h122.827c5.063 9.554 12.352 17.748 21.173 23.897zm-14.265 37.151 19.378-4.329 33.388 33.388 33.388-33.388 19.378 4.329-52.766 58.278zm-169.735-78.548c0-12.407 10.093-22.5 22.5-22.5h132.5v8.5c0 5.691.716 11.217 2.048 16.5h-132.048v255h395v-255h-132.048c1.332-5.283 2.048-10.809 2.048-16.5v-8.5h132.5c12.407 0 22.5 10.093 22.5 22.5v282.5h-159v7.5c0 3.584-2.916 6.5-6.5 6.5h-114c-3.584 0-6.5-2.916-6.5-6.5v-7.5h-159zm463 316c0 12.407-10.093 22.5-22.5 22.5h-436c-12.407 0-22.5-10.093-22.5-22.5v-18.5h163.35c3.05 8.168 10.932 14 20.15 14h114c9.218 0 17.101-5.832 20.15-14h163.35z" fill="url(#SVGID_4_)"/></g></g></svg>