<svg id="Capa_1" enable-background="new 0 0 511.153 511.153" height="512" viewBox="0 0 511.153 511.153" width="512" xmlns="http://www.w3.org/2000/svg" xmlns:xlink="http://www.w3.org/1999/xlink"><linearGradient id="SVGID_1_" gradientUnits="userSpaceOnUse" x1="227.5" x2="227.5" y1="56.577" y2="316.577"><stop offset=".00000036422" stop-color="#a8abff"/><stop offset="1" stop-color="#fac8ff"/></linearGradient><linearGradient id="SVGID_2_" gradientUnits="userSpaceOnUse" x1="255.577" x2="255.577" y1=".077" y2="511.077"><stop offset=".00000011981" stop-color="#174fa3"/><stop offset="1" stop-color="#b044af"/></linearGradient><g><g><g fill="#fff"><path d="m57.5 503.577v-496h340v461c0 19.33-15.67 35-35 35z"/><path d="m327.5 468.577v-35h-320v35c0 19.33 15.67 35 35 35h320c-19.33 0-35-15.67-35-35z"/><path d="m467.5 503.577c-11.19 0-20.4-8.801-20.908-19.979l-13.142-289.113c-.518-11.39 8.577-20.908 19.979-20.908h28.141c11.402 0 20.497 9.518 19.979 20.908l-13.141 289.112c-.508 11.178-9.718 19.98-20.908 19.98z"/><path d="m487.5 173.577h-40l-15-53 7.333-5.238c17.362-12.402 27.667-32.425 27.667-53.762 0 21.337 10.304 41.36 27.667 53.762l7.333 5.238z"/></g><path d="m357.5 203.719v-34.284l-28.693-10.204c-4.126-9.96-6.21-14.992-10.336-24.953l13.074-27.504c-12.106-12.105-12.137-12.137-24.242-24.242l-27.504 13.074c-9.96-4.126-14.992-6.21-24.953-10.336l-10.204-28.693h-34.284l-10.204 28.693c-9.96 4.126-14.992 6.21-24.953 10.336l-27.504-13.074c-12.105 12.105-12.137 12.137-24.242 24.242l13.074 27.504-10.336 24.953-28.693 10.204v34.284l28.693 10.204 10.336 24.953-13.074 27.504c12.106 12.105 12.137 12.137 24.242 24.242l27.504-13.074 24.953 10.336 10.204 28.693h34.284l10.204-28.693c9.96-4.126 14.992-6.21 24.953-10.336l27.504 13.074c12.105-12.105 12.137-12.137 24.242-24.242l-13.074-27.504c4.126-9.96 6.21-14.992 10.336-24.953zm-130 37.858c-30.376 0-55-24.624-55-55s24.624-55 55-55 55 24.624 55 55-24.624 55-55 55z" fill="url(#SVGID_1_)"/></g><path d="m50 426.077h-50v42.5c0 23.435 19.065 42.5 42.5 42.5h320c23.435 0 42.5-19.065 42.5-42.5v-468.5h-355zm-7.5 70c-15.164 0-27.5-12.336-27.5-27.5v-27.5h305v27.5c0 10.479 3.811 20.083 10.121 27.5zm22.5-481h325v453.5c0 15.164-12.336 27.5-27.5 27.5s-27.5-12.336-27.5-27.5v-42.5h-270zm292.5 349h-260v-15h260zm-260 15h180v15h-180zm398.724-208.784 14.93-52.752-11.627-8.305c-15.358-10.97-24.527-28.787-24.527-47.659h-15c0 18.873-9.169 36.689-24.526 47.659l-11.627 8.305 14.93 52.752c-1.885 1.193-3.641 2.624-5.228 4.285-5.238 5.482-7.935 12.673-7.59 20.248l13.141 289.112c.691 15.218 13.166 27.139 28.4 27.139s27.709-11.921 28.4-27.139l13.142-289.112c.345-7.575-2.352-14.766-7.59-20.248-1.587-1.661-3.343-3.092-5.228-4.285zm-52.032-48.851c6.083-4.346 11.388-9.551 15.808-15.378v35.513h15v-35.513c4.42 5.828 9.724 11.033 15.808 15.378l3.039 2.17-12.019 42.464h-.258-28.14-.258l-12.019-42.464zm36.724 361.815c-.327 7.188-6.22 12.82-13.416 12.82s-13.089-5.631-13.416-12.82l-11.917-262.18h50.667zm12.599-277.18h-52.031l-.542-11.932c-.156-3.443 1.069-6.712 3.45-9.204s5.591-3.864 9.037-3.864h28.141c3.446 0 6.656 1.372 9.037 3.864s3.606 5.76 3.45 9.204zm-365.191 32.589-13.915 29.274 31.728 31.728 29.274-13.916 18.794 7.785 10.86 30.54h44.869l10.86-30.54 18.794-7.785 29.274 13.916 31.728-31.728-13.915-29.274 7.784-18.793 30.54-10.86v-44.87l-30.54-10.86-7.784-18.793 13.915-29.274-31.728-31.728-29.274 13.916-18.794-7.785-10.86-30.54h-44.869l-10.86 30.54-18.794 7.785-29.274-13.916-31.728 31.728 13.915 29.274-7.784 18.793-30.54 10.859v44.87l30.54 10.86zm-23.324-63.938 26.847-9.547 12.888-31.112-12.233-25.734 16.757-16.757 25.735 12.233 31.11-12.887 9.548-26.847h23.697l9.548 26.847 31.11 12.887 25.735-12.233 16.757 16.757-12.233 25.734 12.888 31.112 26.846 9.547v23.698l-26.847 9.547-12.888 31.112 12.233 25.734-16.757 16.757-25.735-12.233-31.11 12.887-9.548 26.847h-23.697l-9.548-26.847-31.11-12.887-25.735 12.233-16.757-16.757 12.233-25.734-12.888-31.112-26.846-9.547zm122.5 74.349c34.463 0 62.5-28.038 62.5-62.5s-28.037-62.5-62.5-62.5-62.5 28.038-62.5 62.5 28.037 62.5 62.5 62.5zm0-110c26.191 0 47.5 21.309 47.5 47.5s-21.309 47.5-47.5 47.5-47.5-21.309-47.5-47.5 21.309-47.5 47.5-47.5z" fill="url(#SVGID_2_)"/></g></svg>