<svg id="Capa_1" enable-background="new 0 0 511 511" height="512" viewBox="0 0 511 511" width="512" xmlns="http://www.w3.org/2000/svg" xmlns:xlink="http://www.w3.org/1999/xlink"><linearGradient id="SVGID_1_" gradientUnits="userSpaceOnUse" x1="197.5" x2="197.5" y1="37.5" y2="473.5"><stop offset=".00000083866" stop-color="#96d1f3"/><stop offset="1" stop-color="#ccfff4"/></linearGradient><linearGradient id="lg1"><stop offset=".00000036422" stop-color="#a8abff"/><stop offset="1" stop-color="#fac8ff"/></linearGradient><linearGradient id="SVGID_2_" gradientUnits="userSpaceOnUse" x1="130.5" x2="130.5" xlink:href="#lg1" y1="213.5" y2="413.5"/><linearGradient id="SVGID_3_" gradientUnits="userSpaceOnUse" x1="463.5" x2="463.5" xlink:href="#lg1" y1="423.5" y2="503.5"/><linearGradient id="SVGID_4_" gradientUnits="userSpaceOnUse" x1="255.5" x2="255.5" y1="0" y2="511"><stop offset=".00000011981" stop-color="#174fa3"/><stop offset="1" stop-color="#b044af"/></linearGradient><g><g><path d="m7.5 7.5h320v436h-320z" fill="#fff"/><path d="m37.5 37.5h320v436h-320z" fill="url(#SVGID_1_)"/><path d="m387.5 503.5h-320v-376l60-60h260z" fill="#fff"/><path d="m150.5 253.5h-40v-40h40zm0 40h-40v40h40zm0 80h-40v40h40z" fill="url(#SVGID_2_)"/><path d="m463.5 383.5c-22.091 0-40 17.909-40 40h80c0-22.091-17.909-40-40-40z" fill="#fff"/><path d="m423.5 423.5h80v80h-80z" fill="url(#SVGID_3_)"/><g fill="#fff"><path d="m463.5 327.5 20-60h-40z"/><path d="m443.5 57.5h40v210h-40z"/><path d="m463.5 7.5c-11.046 0-20 8.954-20 20v30h40v-30c0-11.046-8.954-20-20-20z"/></g></g><path d="m365 30h-30v-30h-335v451h30v30h30v30h335v-451h-30zm-335 406h-15v-421h305v15h-290zm30 30h-15v-421h305v15h-225.606l-64.394 64.394zm60-380.394v34.394h-34.394zm260-10.606v421h-305v-361h60v-60zm-277.5 87h250v15h-250zm206 59h-130v-15h130zm-130 15h90v15h-90zm152 160c-15.164 0-27.5 12.337-27.5 27.5v50h15v-16.5h25v16.5h15v-50c0-15.163-12.336-27.5-27.5-27.5zm12.5 46h-25v-18.5c0-6.893 5.607-12.5 12.5-12.5s12.5 5.607 12.5 12.5zm-240-181h55v-55h-55zm15-40h25v25h-25zm60.5 65h130v15h-130zm0 30h60v15h-60zm-75.5 25h55v-55h-55zm15-40h25v25h-25zm60.5 65h120v15h-120zm0 30h80v15h-80zm-75.5 25h55v-55h-55zm15-40h25v25h-25zm345.5-5c-26.191 0-47.5 21.309-47.5 47.5v87.5h95v-87.5c0-26.191-21.309-47.5-47.5-47.5zm0 15c15.339 0 28.221 10.685 31.617 25h-63.234c3.396-14.315 16.278-25 31.617-25zm32.5 105h-65v-65h65zm-5-227.283v-241.217c0-15.163-12.336-27.5-27.5-27.5s-27.5 12.337-27.5 27.5v241.217l27.5 82.5zm-40-241.217c0-6.893 5.607-12.5 12.5-12.5s12.5 5.607 12.5 12.5v22.5h-25zm0 37.5h25v195h-25zm22.094 210-9.594 28.783-9.594-28.783z" fill="url(#SVGID_4_)"/></g></svg>