<svg id="Capa_1" enable-background="new 0 0 510.844 510.844" height="512" viewBox="0 0 510.844 510.844" width="512" xmlns="http://www.w3.org/2000/svg" xmlns:xlink="http://www.w3.org/1999/xlink"><linearGradient id="SVGID_1_" gradientUnits="userSpaceOnUse" x1="185.422" x2="185.422" y1="87.5" y2="500.5"><stop offset=".00000083866" stop-color="#96d1f3"/><stop offset="1" stop-color="#ccfff4"/></linearGradient><linearGradient id="SVGID_2_" gradientUnits="userSpaceOnUse" x1="185.422" x2="185.422" y1="341.5" y2="431.5"><stop offset=".00000036422" stop-color="#a8abff"/><stop offset="1" stop-color="#fac8ff"/></linearGradient><linearGradient id="SVGID_3_" gradientUnits="userSpaceOnUse" x1="255.422" x2="255.422" y1="0" y2="510.844"><stop offset=".00000011981" stop-color="#174fa3"/><stop offset="1" stop-color="#b044af"/></linearGradient><g><g><path d="m100.422 7.5v476h370v-436c0-22.091-17.909-40-40-40z" fill="#fff"/><path d="m390.422 47.5v40h-350v-40c0-22.091 17.909-40 40-40h350c-22.092 0-40 17.909-40 40z" fill="#fff"/><path d="m215.422 500.5-30-9.812-30 9.812v-413h60z" fill="url(#SVGID_1_)"/><circle cx="185.422" cy="386.5" fill="url(#SVGID_2_)" r="45"/></g><path d="m430.422 0h-350c-26.191 0-47.5 21.309-47.5 47.5v47.5h60v396h55v19.844l37.5-12.265 37.5 12.265v-19.844h255v-443.5c0-26.191-21.309-47.5-47.5-47.5zm-382.5 80v-32.5c0-17.921 14.579-32.5 32.5-32.5h315.39c-7.989 8.503-12.89 19.939-12.89 32.5v32.5zm160 15v244.076c-6.824-3.251-14.452-5.076-22.5-5.076s-15.676 1.825-22.5 5.076v-244.076zm-60 381h-40v-381h40v254.808c-9.27 9.472-15 22.423-15 36.692s5.73 27.219 15 36.692zm60 14.156-22.5-7.358-22.5 7.358v-56.232c6.824 3.251 14.452 5.076 22.5 5.076s15.676-1.825 22.5-5.076zm-22.5-66.156c-20.678 0-37.5-16.822-37.5-37.5s16.822-37.5 37.5-37.5 37.5 16.822 37.5 37.5-16.822 37.5-37.5 37.5zm277.5 52h-240v-52.808c9.27-9.472 15-22.423 15-36.692s-5.73-27.219-15-36.692v-254.808h175v-47.5c0-17.921 14.579-32.5 32.5-32.5s32.5 14.579 32.5 32.5zm-170.5-46h140v15h-140zm-40-169h180v15h-180zm100 45h-100v-15h100zm.5 76.5v5.713l5.497-7.067c4.025-5.177 10.096-8.146 16.654-8.146 6.287 0 12.199 2.772 16.221 7.606 3.279 3.942 4.981 8.872 4.877 13.91l23.31-14.397 7.883 12.762-35.812 22.119h-14.146l3.665-19.791c.453-2.446-.625-4.188-1.309-5.01-.683-.821-2.2-2.199-4.688-2.199-1.896 0-3.65.858-4.814 2.354l-19.17 24.646h-13.168v-32.5c0-6.341-5.159-11.5-11.5-11.5s-11.5 5.159-11.5 11.5c0 4.895 1.026 9.635 3.052 14.089l6.276 13.808-13.656 6.207-6.275-13.807c-2.917-6.416-4.396-13.245-4.396-20.297 0-14.612 11.888-26.5 26.5-26.5s26.499 11.888 26.499 26.5zm5-261.5h-105v115h105zm-15 100h-75v-85h75z" fill="url(#SVGID_3_)"/></g></svg>