<svg id="Capa_1" enable-background="new 0 0 511.73 511.73" height="512" viewBox="0 0 511.73 511.73" width="512" xmlns="http://www.w3.org/2000/svg" xmlns:xlink="http://www.w3.org/1999/xlink"><linearGradient id="SVGID_1_" gradientUnits="userSpaceOnUse" x1="29" x2="29" y1="335.023" y2="465.023"><stop offset=".00000083866" stop-color="#96d1f3"/><stop offset="1" stop-color="#ccfff4"/></linearGradient><linearGradient id="SVGID_2_" gradientUnits="userSpaceOnUse" x1="334" x2="334" y1="8.023" y2="348.023"><stop offset=".00000036422" stop-color="#a8abff"/><stop offset="1" stop-color="#fac8ff"/></linearGradient><linearGradient id="SVGID_3_" gradientUnits="userSpaceOnUse" x1="255.865" x2="255.865" y1=".523" y2="511.208"><stop offset=".00000011981" stop-color="#174fa3"/><stop offset="1" stop-color="#b044af"/></linearGradient><g><g><path d="m0 335.022h58v130h-58z" fill="url(#SVGID_1_)"/><path d="m504 200.899v-45.754l-36.413-12.949-13.794-33.301 16.592-34.905-32.353-32.353-34.905 16.592-33.301-13.794-12.949-36.413h-45.754l-12.949 36.413-33.301 13.794-34.905-16.592-32.353 32.353 16.592 34.905-13.794 33.301-36.413 12.95v45.754l36.413 12.949 13.794 33.301-16.592 34.905 32.353 32.353 34.905-16.592 33.301 13.794 12.949 36.413h45.754l12.949-36.413 33.301-13.794 34.905 16.592 32.353-32.353-16.592-34.905 13.794-33.301z" fill="url(#SVGID_2_)"/><g fill="#fff"><path d="m404 161.022h-10c-14.359 0-26 11.641-26 26s11.641 26 26 26h10v34h-120v-34h-14c-14.359 0-26-11.641-26-26s11.641-26 26-26h14v-34h34v-14c0-14.359 11.641-26 26-26s26 11.641 26 26v14h34z"/><path d="m500.715 373.614c-14.107-19.75-37.737-25.862-59.044-14.24l-94.671 51.639 1-5c0-13.255-10.745-24-24-24h-72.701s-11.383-24.827-20.573-31.246c-48.329-44.218-139.698 3.668-139.698 3.668h-33.028v91.109h52.515l184.85 57.478 205.635-129.009z"/></g></g><path d="m506.818 369.254c-16.589-23.225-44.212-29.843-68.738-16.464l-83.527 45.56c-3.432-13.677-15.826-23.837-30.553-23.837h-67.975c-4.008-8.097-12.366-23.519-20.568-29.58-48.515-43.859-132.837-4.663-146.227 2.003h-23.73v-19.413h-65.5v15h50.5v115h-50.5v15h65.5v-19.479h43.876l187.055 58.164 215.3-135.073zm-212.518 125.583-181.558-56.455-1.088-.338h-46.154v-76.109l27.373-.001 1.632-.854c.868-.453 87.303-44.903 131.158-4.779l.364.333.404.283c5.171 3.61 13.668 18.678 18.05 28.224l2.007 4.372h77.512c9.098 0 16.5 7.402 16.5 16.5s-7.402 16.5-16.5 16.5h-102v15h102c13.965 0 25.83-9.138 29.947-21.746l91.315-49.808c15.61-8.513 32.407-5.953 44.505 6.248zm-88.298-247.897-17.433 36.674 39.838 39.839 36.675-17.433 27.142 11.242 13.606 38.26h56.34l13.606-38.26 27.142-11.242 36.675 17.433 39.838-39.839-17.433-36.674 11.243-27.143 38.26-13.605v-56.34l-38.26-13.605-11.243-27.143 17.433-36.674-39.838-39.839-36.675 17.433-27.142-11.242-13.606-38.26h-56.34l-13.606 38.26-27.142 11.242-36.675-17.433-39.838 39.839 17.433 36.674-11.243 27.143-38.26 13.605v56.34l38.26 13.605zm-34.502-86.502 34.567-12.293 16.345-39.459-15.75-33.135 24.868-24.868 33.135 15.751 39.46-16.346 12.292-34.566h35.168l12.292 34.566 39.46 16.346 33.135-15.751 24.868 24.868-15.75 33.135 16.345 39.459 34.567 12.293v35.168l-34.567 12.293-16.345 39.459 15.75 33.135-24.868 24.868-33.135-15.751-39.46 16.346-12.292 34.566h-35.168l-12.292-34.566-39.46-16.346-33.135 15.751-24.868-24.868 15.75-33.135-16.345-39.459-34.567-12.293zm98.5 60.084h6.5v34h135v-49h-17.5c-10.201 0-18.5-8.299-18.5-18.5s8.299-18.5 18.5-18.5h17.5v-49h-34v-6.5c0-18.472-15.028-33.5-33.5-33.5s-33.5 15.028-33.5 33.5v6.5h-34v34h-6.5c-18.472 0-33.5 15.028-33.5 33.5s15.028 33.5 33.5 33.5zm0-52h21.5v-34h34v-21.5c0-10.201 8.299-18.5 18.5-18.5s18.5 8.299 18.5 18.5v21.5h34v19h-2.5c-18.472 0-33.5 15.028-33.5 33.5s15.028 33.5 33.5 33.5h2.5v19h-105v-34h-21.5c-10.201 0-18.5-8.299-18.5-18.5s8.299-18.5 18.5-18.5z" fill="url(#SVGID_3_)"/></g></svg>